<svg xmlns="http://www.w3.org/2000/svg"  viewBox="0 0 30 30" width="40px" height="40px"><path fill="#8bb7f0" d="M6.5,16.5v6.888L14.991,29l8.509-5.568V16.5H6.5z"/><path fill="#4e7ab5" d="M14.989,29.599L6,23.658V16h18v7.702L14.989,29.599z M7,23.12l7.992,5.282L23,23.161V17H7V23.12z"/><g><path fill="#8bb7f0" d="M29,6.527L20.738,1.3L15,6.013l8.576,4.992L29,6.527z M1,15.605l8.503,4.984L15,16.372l-8.145-5.183 L1,15.605z M9.503,1.3L1,6.78l5.855,4.408L15,6.013L9.503,1.3z M15,16.372l5.607,4.217L29,15.605l-5.424-4.601L15,16.372z"/><path fill="#4e7ab5" d="M9.541,21.19l-9.44-5.533l5.924-4.468l-5.898-4.44l9.419-6.071l5.461,4.682L20.7,0.684l9.151,5.79 l-5.496,4.536l5.503,4.667l-9.284,5.513L15.003,17L9.541,21.19z M15.882,16.409l4.758,3.579l7.502-4.455l-4.611-3.911 L15.882,16.409z M1.899,15.553l7.566,4.435l4.663-3.578l-7.25-4.613L1.899,15.553z M7.787,11.189l7.216,4.591l7.606-4.76 l-7.597-4.422L7.787,11.189z M1.874,6.812l5.005,3.769l7.283-4.628L9.461,1.922L1.874,6.812z M15.873,5.942l7.653,4.455 l4.624-3.816l-7.374-4.666L15.873,5.942z"/></g></svg>